<?xml version="1.0" encoding="us-ascii" standalone="no"?><svg xmlns="http://www.w3.org/2000/svg" xmlns:xlink="http://www.w3.org/1999/xlink" contentStyleType="text/css" height="198px" preserveAspectRatio="none" style="width:306px;height:198px;background:#FFFFFF;" version="1.1" viewBox="0 0 306 198" width="306px" zoomAndPan="magnify"><defs/><g><!--entity Trainer--><g id="elem_Trainer"><ellipse cx="29" cy="72" fill="#F1F1F1" rx="8" ry="8" style="stroke:#181818;stroke-width:0.5;"/><path d="M29,80 L29,107 M16,88 L42,88 M29,107 L16,122 M29,107 L42,122 " fill="none" style="stroke:#181818;stroke-width:0.5;"/><text fill="#000000" font-family="sans-serif" font-size="14" lengthAdjust="spacing" textLength="46" x="6" y="138.0332">Trainer</text></g><g id="elem_Evaluate Learner's Skill"><ellipse cx="206.313" cy="27.2626" fill="#F1F1F1" rx="94.313" ry="21.2626" style="stroke:#181818;stroke-width:0.5;"/><text fill="#000000" font-family="sans-serif" font-size="14" lengthAdjust="spacing" textLength="148" x="132.313" y="30.9911">Evaluate Learner's Skill</text></g><g id="elem_Assign Skill Level"><ellipse cx="206.396" cy="102.4792" fill="#F1F1F1" rx="77.896" ry="17.9792" style="stroke:#181818;stroke-width:0.5;"/><text fill="#000000" font-family="sans-serif" font-size="14" lengthAdjust="spacing" textLength="109" x="149.9355" y="106.7466">Assign Skill Level</text></g><g id="elem_Provide Feedback"><ellipse cx="206.2827" cy="174.4565" fill="#F1F1F1" rx="80.2827" ry="18.4565" style="stroke:#181818;stroke-width:0.5;"/><text fill="#000000" font-family="sans-serif" font-size="14" lengthAdjust="spacing" textLength="115" x="147.9192" y="178.4341">Provide Feedback</text></g><!--link Trainer to Evaluate Learner's Skill--><g id="link_Trainer_Evaluate Learner's Skill"><path d="M52.23,92.61 C68.69,85.31 91.7,75.19 112,66.5 C127.52,59.86 139.0113,55.0172 154.2313,48.6772 " fill="none" id="Trainer-to-Evaluate Learner's Skill" style="stroke:#181818;stroke-width:1.0;"/><polygon fill="#181818" points="159.77,46.37,149.9239,46.1383,155.1544,48.2926,153.0001,53.5232,159.77,46.37" style="stroke:#181818;stroke-width:1.0;"/></g><!--link Trainer to Assign Skill Level--><g id="link_Trainer_Assign Skill Level"><path d="M52.23,102.5 C71.5,102.5 94.58,102.5 122.25,102.5 " fill="none" id="Trainer-to-Assign Skill Level" style="stroke:#181818;stroke-width:1.0;"/><polygon fill="#181818" points="128.25,102.5,119.25,98.5,123.25,102.5,119.25,106.5,128.25,102.5" style="stroke:#181818;stroke-width:1.0;"/></g><!--link Trainer to Provide Feedback--><g id="link_Trainer_Provide Feedback"><path d="M52.21,112.17 C68.67,119.29 91.67,129.14 112,137.5 C129.11,144.54 142.5074,149.8911 158.8574,156.3311 " fill="none" id="Trainer-to-Provide Feedback" style="stroke:#181818;stroke-width:1.0;"/><polygon fill="#181818" points="164.44,158.53,157.5321,151.51,159.7879,156.6976,154.6002,158.9534,164.44,158.53" style="stroke:#181818;stroke-width:1.0;"/></g><!--SRC=[NSen3i8m38NXtQVmHZlq2aWCxTIX4bp0JHwjrIYH79FpKmaMs9x-zoKydRsmwROxHpK4rvA997WnVfXeXX5z1m_3bRknINg9WsU8dVLI-NveIlqlkzMgM_vS9stu1ukLfX4y0N6LSFJq1W00]--></g></svg>
